:FULLY-SPECIFIED
:FORCE-ALL-JOINTS-BE-3DOF
:DEGREES
510
root -4.38423 14.8355 -41.4329 2.60722 -2.71984 -6.76827
lfemur -31.3062 25.4429 -18.0559
ltibia 65.7139 -0 0
lfoot -25.1157 28.8764 -0.139827
ltoes -4.14476 0 0
rfemur -33.1464 -9.75493 10.9608
rtibia 72.654 -0 0
rfoot -6.08685 -10.7309 0.102418
rtoes 12.0832 -0 0
lowerback 16.3947 -0.130954 -7.04833
upperback -0.30331 -1.25417 3.09245
thorax -9.32837 -0.177667 7.73012
lowerneck 4.11063 -14.8785 -15.5874
upperneck 1.97705 -21.2016 17.6597
head 3.65621 -10.7285 6.90986
lclavicle 1.57288e-14 -3.97569e-15 0
lhumerus -33.4659 -47.9615 109.284
lradius 89.4124 -0 0
lwrist 42.7878 0 0
lhand -7.69588 45.1603 -0.207907
lfingers 7.12502 -0 0
lthumb 18.1981 74.2798 -0.21276
rclavicle 1.57288e-14 -3.97569e-15 0
rhumerus 44.0528 25.8164 -37.6747
rradius 88.9213 -0 0
rwrist -20.6256 0 0
rhand -2.95472 -19.607 0.24886
rfingers 7.12502 -0 0
rthumb 22.6782 -47.3039 0.502972
511
root -4.46881 14.8209 -41.4672 2.35095 -6.58862 -6.437
lfemur -29.1477 24.709 -16.8759
ltibia 65.0431 -0 0
lfoot -24.8107 28.5885 -0.144492
ltoes -5.43694 0 0
rfemur -34.24 -10.5436 10.6539
rtibia 72.3092 -0 0
rfoot -6.0347 -9.49091 0.105856
rtoes 11.8012 -0 0
lowerback 16.4397 0.00335046 -7.11736
upperback -0.248506 -1.10712 2.95247
thorax -9.32082 -0.110874 7.57884
lowerneck 3.77288 -14.6849 -15.457
upperneck 2.38542 -20.9115 17.2049
head 3.72197 -10.5646 6.75824
lclavicle 1.57288e-14 -3.97569e-15 0
lhumerus -36.0611 -45.8563 109.5
lradius 90.2603 -0 0
lwrist 44.7998 0 0
lhand -8.00945 45.5769 -0.214846
lfingers 7.12502 -0 0
lthumb 17.8962 74.7227 -0.219861
rclavicle 1.57288e-14 -3.97569e-15 0
rhumerus 41.6116 24.8575 -39.3142
rradius 86.4836 -0 0
rwrist -19.5758 0 0
rhand -4.27274 -19.7263 0.257224
rfingers 7.12502 -0 0
rthumb 21.412 -47.5549 0.519871
512
root -4.55338 14.8063 -41.5014 2.06576 -10.5028 -6.08034
lfemur -26.9933 23.9259 -15.7202
ltibia 64.3643 -0 0
lfoot -24.5019 28.2971 -0.147652
ltoes -6.74484 0 0
rfemur -35.3454 -11.3475 10.3581
rtibia 71.9602 -0 0
rfoot -5.98185 -8.2358 0.108187
rtoes 11.5157 -0 0
lowerback 16.485 0.139343 -7.18712
upperback -0.193405 -0.958146 2.81094
thorax -9.31337 -0.043249 7.42573
lowerneck 3.43179 -14.4881 -15.3262
upperneck 2.79545 -20.6149 16.7478
head 3.78805 -10.3984 6.60506
lclavicle 1.57288e-14 -3.97569e-15 0
lhumerus -38.5819 -43.721 109.576
lradius 91.1184 -0 0
lwrist 46.8362 0 0
lhand -8.32688 45.9986 -0.219547
lfingers 7.12502 -0 0
lthumb 17.5906 75.171 -0.224672
rclavicle 1.57288e-14 -3.97569e-15 0
rhumerus 39.1915 23.8243 -40.9136
rradius 84.0163 -0 0
rwrist -18.5133 0 0
rhand -5.60681 -19.8472 0.262893
rfingers 7.12502 -0 0
rthumb 20.1303 -47.8092 0.531324
513
root -4.63795 14.7917 -41.5356 1.74872 -14.4433 -5.69531
lfemur -24.8544 23.098 -14.5965
ltibia 63.6805 -0 0
lfoot -24.1909 28.0036 -0.149247
ltoes -8.06217 0 0
rfemur -36.4578 -12.1628 10.0754
rtibia 71.6086 -0 0
rfoot -5.92859 -6.97164 0.109364
rtoes 11.2282 -0 0
lowerback 16.5305 0.276372 -7.25728
upperback -0.138281 -0.807959 2.66854
thorax -9.30604 0.0248837 7.27153
lowerneck 3.08901 -14.2892 -15.1959
upperneck 3.20506 -20.313 16.2905
head 3.85411 -10.2309 6.45105
lclavicle 1.57288e-14 -3.97569e-15 0
lhumerus -41.0311 -41.57 109.523
lradius 91.9828 -0 0
lwrist 48.8873 0 0
lhand -8.64662 46.4233 -0.22192
lfingers 7.12502 -0 0
lthumb 17.2828 75.6225 -0.227101
rclavicle 1.57288e-14 -3.97569e-15 0
rhumerus 36.806 22.7229 -42.4625
rradius 81.5311 -0 0
rwrist -17.4431 0 0
rhand -6.9505 -19.9691 0.265756
rfingers 7.12502 -0 0
rthumb 18.8393 -48.0655 0.537107
514
root -4.72253 14.7772 -41.5698 1.39642 -18.391 -5.27841
lfemur -22.7415 22.2304 -13.5113
ltibia 62.9951 -0 0
lfoot -23.8791 27.7093 -0.149247
ltoes -9.38264 0 0
rfemur -37.5723 -12.9852 9.80743
rtibia 71.2563 -0 0
rfoot -5.87518 -5.70446 0.109364
rtoes 10.9401 -0 0
lowerback 16.5759 0.413784 -7.3275
upperback -0.0834019 -0.657276 2.52595
thorax -9.29888 0.0931984 7.11697
lowerneck 2.74618 -14.089 -15.0666
upperneck 3.61226 -20.0074 15.8354
head 3.91983 -10.0628 6.29695
lclavicle 1.57288e-14 -3.97569e-15 0
lhumerus -43.4112 -39.4175 109.352
lradius 92.8491 -0 0
lwrist 50.9434 0 0
lhand -8.96714 46.8491 -0.22192
lfingers 7.12502 -0 0
lthumb 16.9743 76.0752 -0.227101
rclavicle 1.57288e-14 -3.97569e-15 0
rhumerus 34.4669 21.5611 -43.9519
rradius 79.0401 -0 0
rwrist -16.3703 0 0
rhand -8.2974 -20.0914 0.265756
rfingers 7.12502 -0 0
rthumb 17.5452 -48.3225 0.537107
515
root -4.8071 14.7626 -41.604 1.00497 -22.3265 -4.82563
lfemur -20.6647 21.3289 -12.4702
ltibia 62.3113 -0 0
lfoot -23.5681 27.4158 -0.147652
ltoes -10.7 0 0
rfemur -38.6839 -13.8106 9.55568
rtibia 70.9047 -0 0
rfoot -5.82192 -4.4403 0.108187
rtoes 10.6526 -0 0
lowerback 16.6211 0.550923 -7.39744
upperback -0.029029 -0.506816 2.38384
thorax -9.29192 0.16137 6.96278
lowerneck 2.40494 -13.8886 -14.939
upperneck 4.01513 -19.6995 15.3845
head 3.98491 -9.89489 6.14349
lclavicle 1.57288e-14 -3.97569e-15 0
lhumerus -45.7242 -37.2771 109.075
lradius 93.7135 -0 0
lwrist 52.9945 0 0
lhand -9.28688 47.2738 -0.219547
lfingers 7.12502 -0 0
lthumb 16.6665 76.5267 -0.224672
rclavicle 1.57288e-14 -3.97569e-15 0
rhumerus 32.1847 20.3475 -45.3743
rradius 76.5549 -0 0
rwrist -15.3001 0 0
rhand -9.64109 -20.2133 0.262893
rfingers 7.12502 -0 0
rthumb 16.2542 -48.5788 0.531324
516
root -4.89167 14.748 -41.6382 0.569879 -26.2308 -4.33237
lfemur -18.6328 20.4001 -11.4781
ltibia 61.6325 -0 0
lfoot -23.2593 27.1244 -0.144492
ltoes -12.0079 0 0
rfemur -39.788 -14.6346 9.32124
rtibia 70.5557 -0 0
rfoot -5.76907 -3.18519 0.105856
rtoes 10.3671 -0 0
lowerback 16.6658 0.687136 -7.46678
upperback 0.0245844 -0.357301 2.2429
thorax -9.28519 0.229071 6.8097
lowerneck 2.06688 -13.6888 -14.8136
upperneck 4.41179 -19.3909 14.94
head 4.04903 -9.72804 5.9914
lclavicle 1.57288e-14 -3.97569e-15 0
lhumerus -47.9716 -35.1623 108.702
lradius 94.5716 -0 0
lwrist 55.0309 0 0
lhand -9.60431 47.6955 -0.214846
lfingers 7.12502 -0 0
lthumb 16.3609 76.975 -0.219861
rclavicle 1.57288e-14 -3.97569e-15 0
rhumerus 29.9685 19.0917 -46.7241
rradius 74.0876 -0 0
rwrist -14.2376 0 0
rhand -10.9752 -20.3342 0.257224
rfingers 7.12502 -0 0
rthumb 14.9725 -48.8331 0.519871
517
root -4.97625 14.7334 -41.6725 0.0860481 -30.0845 -3.79345
lfemur -16.6542 19.4509 -10.5386
ltibia 60.9617 -0 0
lfoot -22.9543 26.8365 -0.139827
ltoes -13.3001 0 0
rfemur -40.8795 -15.4529 9.10494
rtibia 70.2109 -0 0
rfoot -5.71692 -1.94516 0.102418
rtoes 10.0851 -0 0
lowerback 16.7097 0.821765 -7.53518
upperback 0.0771916 -0.209453 2.10379
thorax -9.27871 0.295977 6.65848
lowerneck 1.7336 -13.4908 -14.691
upperneck 4.80046 -19.0832 14.5039
head 4.11191 -9.56304 5.84139
lclavicle 1.57288e-14 -3.97569e-15 0
lhumerus -50.1536 -33.086 108.247
lradius 95.4195 -0 0
lwrist 57.0429 0 0
lhand -9.91788 48.1121 -0.207907
lfingers 7.12502 -0 0
lthumb 16.059 77.4179 -0.21276
rclavicle 1.57288e-14 -3.97569e-15 0
rhumerus 27.8261 17.8042 -47.9967
rradius 71.6499 -0 0
rwrist -13.1878 0 0
rhand -12.2932 -20.4535 0.24886
rfingers 7.12502 -0 0
rthumb 13.7063 -49.0841 0.502972
518
root -5.06082 14.7188 -41.7067 -0.452246 -33.8682 -3.20305
lfemur -14.7367 18.4889 -9.65451
ltibia 60.3024 -0 0
lfoot -22.6544 26.5535 -0.133749
ltoes -14.5702 0 0
rfemur -41.9536 -16.261 8.90733
rtibia 69.872 -0 0
rfoot -5.66575 -0.726245 0.0979381
rtoes 9.80791 -0 0
lowerback 16.7528 0.954153 -7.60232
upperback 0.128553 -0.0639974 1.96718
thorax -9.27253 0.36176 6.50983
lowerneck 1.4067 -13.2955 -14.5718
upperneck 5.17939 -18.778 14.0781
head 4.17327 -9.40069 5.69419
lclavicle 1.57288e-14 -3.97569e-15 0
lhumerus -52.2696 -31.0603 107.719
lradius 96.2529 -0 0
lwrist 59.0206 0 0
lhand -10.2261 48.5216 -0.198865
lfingers 7.12502 -0 0
lthumb 15.7624 77.8532 -0.203506
rclavicle 1.57288e-14 -3.97569e-15 0
rhumerus 25.7645 16.496 -49.1892
rradius 69.2536 -0 0
rwrist -12.1559 0 0
rhand -13.5887 -20.5706 0.237965
rfingers 7.12502 -0 0
rthumb 12.4617 -49.3303 0.480961
519
root -5.1454 14.7042 -41.7409 -1.05133 -37.5627 -2.55477
lfemur -12.8874 17.5219 -8.82798
ltibia 59.6578 -0 0
lfoot -22.3613 26.2769 -0.126374
ltoes -15.8121 0 0
rfemur -43.0054 -17.0544 8.72866
rtibia 69.5406 -0 0
rfoot -5.61581 0.465521 0.0925069
rtoes 9.53687 -0 0
lowerback 16.7948 1.08364 -7.66787
upperback 0.178435 0.0783366 1.83374
thorax -9.26664 0.426093 6.36449
lowerneck 1.08772 -13.1039 -14.4564
upperneck 5.54689 -18.477 13.6647
head 4.23282 -9.2418 5.55051
lclavicle 1.57288e-14 -3.97569e-15 0
lhumerus -54.3177 -29.097 107.132
lradius 97.0677 -0 0
lwrist 60.9543 0 0
lhand -10.5273 48.9218 -0.187895
lfingers 7.12502 -0 0
lthumb 15.4724 78.2788 -0.192279
rclavicle 1.57288e-14 -3.97569e-15 0
rhumerus 23.7895 15.1784 -50.2997
rradius 66.9108 -0 0
rwrist -11.147 0 0
rhand -14.8554 -20.6848 0.224757
rfingers 7.12502 -0 0
rthumb 11.2449 -49.5705 0.454275
520
root -5.22997 14.6897 -41.7751 -1.71801 -41.1485 -1.84172
lfemur -11.113 16.5582 -8.06019
ltibia 59.0311 -0 0
lfoot -22.0764 26.008 -0.117848
ltoes -17.0195 0 0
rfemur -44.0298 -17.8286 8.56891
rtibia 69.2184 -0 0
rfoot -5.56739 1.62411 0.0862323
rtoes 9.27338 -0 0
lowerback 16.8354 1.20957 -7.73151
upperback 0.226611 0.21682 1.70413
thorax -9.26107 0.48865 6.22321
lowerneck 0.778248 -12.917 -14.3454
upperneck 5.90136 -18.182 13.2654
head 4.2903 -9.0872 5.41104
lclavicle 1.57288e-14 -3.97569e-15 0
lhumerus -56.2949 -27.2068 106.495
lradius 97.8599 -0 0
lwrist 62.8341 0 0
lhand -10.8201 49.3109 -0.175214
lfingers 7.12502 -0 0
lthumb 15.1906 78.6924 -0.179301
rclavicle 1.57288e-14 -3.97569e-15 0
rhumerus 21.9064 13.8633 -51.3275
rradius 64.6332 -0 0
rwrist -10.1661 0 0
rhand -16.0868 -20.7955 0.209499
rfingers 7.12502 -0 0
rthumb 10.0622 -49.8035 0.423447
